<svg width="220" height="87" viewBox="0 0 220 87" fill="none" xmlns="http://www.w3.org/2000/svg">
<g clip-path="url(#clip0_3_222)">
<path d="M3.17247 61.1579C5.28745 58.8212 7.82542 56.9093 9.7289 54.3601C26.0142 31.6301 49.279 20.3713 75.0817 14.2108C83.9646 12.0865 94.1165 12.2989 103.211 14.2108C129.225 19.3091 152.913 30.1431 173.428 47.1375C179.35 52.0234 184.426 58.1839 188.656 65.1941C186.33 64.3444 183.792 63.4946 181.465 62.4325C174.697 59.4585 167.929 56.272 160.95 53.7228C157.989 52.6607 154.393 52.6607 151.009 52.8731C149.74 52.8731 147.837 54.785 147.625 56.0596C147.414 57.3342 148.683 59.6709 149.74 59.8833C167.718 65.4065 183.369 76.028 199.654 85.1625C205.364 88.349 208.96 87.4993 211.498 81.7636C217.631 67.5308 220.381 52.4483 219.958 36.9408C219.958 36.516 219.112 35.8787 217.843 34.6041C205.364 39.2776 209.171 52.8731 203.038 63.7071C201.557 61.1579 200.5 59.0336 199.231 57.3342C172.582 24.4074 137.262 6.98815 96.2315 0.615242C90.0981 -0.446915 83.3301 -0.022049 76.9852 1.0401C53.7205 5.07628 32.9937 14.8481 15.8623 31.2052C10.3634 36.516 6.34493 43.5262 2.32647 50.1115C0.634492 52.6607 0.634494 56.272 0 59.246C1.05749 59.8833 2.11498 60.5206 3.17247 61.1579Z" fill="white"/>
</g>
<defs>
<clipPath id="clip0_3_222">
<rect width="220" height="87" fill="white" transform="matrix(1 0 0 -1 0 87)"/>
</clipPath>
</defs>
</svg>
