<svg width="1080" height="1080" viewBox="0 0 1080 1080" fill="none" xmlns="http://www.w3.org/2000/svg">
<path d="M334.311 613.375C344.65 593.613 352.372 578.824 360.094 563.904C413.883 461.037 467.541 358.17 521.592 255.434C527.22 244.702 533.633 234.101 541.093 224.548C573.288 183.715 623.281 183.453 654.168 225.464C671.443 248.89 685.578 274.934 699.319 300.847C772.085 437.873 844.459 575.029 916.44 712.447C935.417 748.568 947.98 786.521 940.521 828.663C932.799 872.113 895.631 909.02 861.08 910.328C872.073 887.164 886.993 863.083 895.238 837.039C907.671 797.384 894.846 759.692 876.523 724.225C830.194 634.707 783.603 545.32 736.488 456.326C702.199 391.543 666.601 327.415 632.181 262.763C624.198 247.843 613.728 238.682 596.452 238.813C579.57 238.813 570.146 249.152 562.818 263.025C511.384 360.919 459.296 458.289 408.648 556.575C397.524 578.17 385.483 595.838 360.486 601.858C353.157 603.559 346.483 607.878 334.18 613.375H334.311Z" fill="#628FFF"/>
<path d="M138 841.62C167.185 863.083 199.38 873.16 235.37 872.637C271.753 872.113 302.378 858.371 331.824 837.955C368.338 812.696 404.198 784.689 444.507 767.152C526.042 731.685 605.744 745.165 680.212 792.28C695.655 802.096 710.182 813.351 724.84 824.344C742.9 837.693 760.83 838.74 774.965 826.7C788.183 815.445 790.8 797.646 780.592 778.277C718.296 659.966 656.916 541.263 592.395 424.131C577.345 396.647 577.475 376.362 598.284 353.59C600.509 356.469 603.389 359.217 605.221 362.62C674.715 494.28 744.471 625.939 813.18 758.122C821.294 773.827 827.838 792.934 827.183 810.079C825.089 862.56 770.384 892.268 720.652 868.972C705.994 862.036 692.775 851.435 679.688 841.489C583.365 768.461 482.33 770.032 388.1 846.069C373.835 857.586 359.963 869.627 345.174 880.358C305.126 909.02 260.76 921.715 211.944 911.506C173.86 903.523 149.517 879.311 138 841.62Z" fill="#628FFF"/>
<path d="M660.711 701.977C532.455 653.422 421.866 679.335 320.046 756.944C305.911 767.675 292.039 778.8 277.381 788.615C250.159 806.676 213.252 806.414 189.303 788.746C166.53 771.994 155.93 739.407 164.436 707.866C168.232 693.862 173.729 679.99 180.534 667.164C251.468 532.625 321.878 397.825 394.644 264.333C410.087 235.934 433.645 211.722 455.239 187.118C463.222 178.087 476.31 173.507 490.313 165C468.326 205.44 447.91 241.823 428.541 278.73C355.644 417.718 283.008 556.837 210.635 696.087C205.662 705.51 199.511 717.682 201.605 726.712C204.222 737.705 213.122 749.484 222.675 755.897C235.37 764.535 249.505 758.907 261.414 749.353C307.875 712.185 356.429 678.55 412.574 657.349C476.179 633.399 540.962 630.127 607.184 643.214C625.244 646.748 638.855 653.946 645.268 672.399C648.409 681.298 653.906 689.413 660.45 701.846L660.711 701.977Z" fill="#628FFF"/>
</svg>
